<?xml version="1.0" encoding="utf-8"?>
<!-- Generator: Adobe Illustrator 21.1.0, SVG Export Plug-In . SVG Version: 6.00 Build 0)  -->
<svg version="1.1" id="mnemonic" xmlns="http://www.w3.org/2000/svg" xmlns:xlink="http://www.w3.org/1999/xlink" x="0px" y="0px"
	 viewBox="0 0 240 234" style="enable-background:new 0 0 240 234;" xml:space="preserve">
<style type="text/css">
	.st1{fill-rule:evenodd;clip-rule:evenodd;fill:#32eeff;}
</style>
<path class="st1" d="M66.5,163.3c-1.2,0-1.5-0.5-1.5-1.5V54.3c0-0.8,0.3-1.3,1.2-1.3H82c0.8,0,1,0.3,1,1.2v92.6h41.2
	c0.8,0,1.1,0.3,0.9,1.2l-2.5,14.2c-0.2,0.8-0.7,1.2-1.5,1.2H66.5z M141.5,98.5c0-1.2,0-4.1-0.5-9.7c0-0.8,0.2-1,0.8-1.3
	c6.1-2.5,20.6-6.9,36.8-6.9c0.8,0,1.2,0.2,1.2,1V96c0,0.8-0.3,1-1.2,1c-6.3-0.3-15.6,0.5-19.1,2v63.1c0,0.8-0.3,1.2-1.2,1.2h-15.7
	c-0.8,0-1.2-0.3-1.2-1.2V98.5z"/>
</svg>
